<svg width="24" height="21" viewBox="0 0 24 21" fill="none" xmlns="http://www.w3.org/2000/svg">
<path d="M0.109619 10.4935C0.109619 10.8702 0.272845 11.2469 0.561628 11.5231L8.84846 19.7974C9.1498 20.0862 9.47625 20.2243 9.84037 20.2243C10.6314 20.2243 11.2089 19.6593 11.2089 18.8934C11.2089 18.4916 11.0583 18.1526 10.7946 17.9015L7.96955 15.0387L4.32837 11.7115L7.25387 11.8872H22.4715C23.3002 11.8872 23.8778 11.3097 23.8778 10.4935C23.8778 9.66486 23.3002 9.0873 22.4715 9.0873H7.25387L4.34092 9.26308L7.96955 5.93579L10.7946 3.07307C11.0583 2.82195 11.2089 2.48295 11.2089 2.08116C11.2089 1.31526 10.6314 0.750244 9.84037 0.750244C9.47625 0.750244 9.13724 0.888358 8.81079 1.20225L0.561628 9.45142C0.272845 9.72764 0.109619 10.1043 0.109619 10.4935Z" fill="#FAFAFA"/>
</svg>
