<svg width="20" height="22" viewBox="0 0 20 22" fill="none" xmlns="http://www.w3.org/2000/svg">
<path d="M4.21429 21.5067H16.0268C17.9654 21.5067 19.0904 20.3817 19.0904 18.2322V7.83597C19.0904 5.68642 17.9554 4.56142 15.7857 4.56142H14.3694C14.3192 2.31142 12.4007 0.443115 10 0.443115C7.60938 0.443115 5.68081 2.31142 5.63059 4.56142H4.21429C2.04465 4.56142 0.909607 5.68642 0.909607 7.83597V18.2322C0.909607 20.3817 2.04465 21.5067 4.21429 21.5067ZM10 2.22102C11.3761 2.22102 12.3906 3.25561 12.4308 4.56142H7.56921C7.60938 3.25561 8.62389 2.22102 10 2.22102Z" fill="#00C2B1"/>
</svg>
