<svg width="24" height="24" viewBox="0 0 24 24" fill="none" xmlns="http://www.w3.org/2000/svg">
<path d="M22 0H2C1.46973 0.000523531 0.961324 0.211405 0.586365 0.586365C0.211405 0.961324 0.000523531 1.46973 0 2V22C0.000523861 22.5303 0.211405 23.0387 0.586365 23.4136C0.961324 23.7886 1.46973 23.9995 2 24H22C22.5303 23.9995 23.0387 23.7886 23.4136 23.4136C23.7886 23.0387 23.9995 22.5303 24 22V2C23.9995 1.46973 23.7886 0.961324 23.4136 0.586364C23.0387 0.211405 22.5303 0.0005232 22 0ZM18.1904 9.72266L10.8564 16.7227C10.6707 16.9006 10.4233 17 10.166 17C9.90873 17 9.66138 16.9006 9.47559 16.7227L5.80957 13.2227C5.71441 13.1321 5.63804 13.0236 5.58485 12.9034C5.53165 12.7833 5.50267 12.6538 5.49956 12.5225C5.49645 12.3911 5.51927 12.2604 5.56672 12.1379C5.61417 12.0153 5.68532 11.9034 5.77609 11.8084C5.86686 11.7134 5.97547 11.6372 6.09571 11.5842C6.21595 11.5312 6.34546 11.5025 6.47683 11.4996C6.60819 11.4967 6.73884 11.5197 6.86128 11.5674C6.98373 11.6151 7.09558 11.6864 7.19043 11.7773L10.166 14.6172L16.8096 8.27734C16.9044 8.18641 17.0163 8.11507 17.1387 8.06741C17.2612 8.01975 17.3918 7.9967 17.5232 7.99958C17.6545 8.00246 17.784 8.03122 17.9043 8.0842C18.0245 8.13719 18.1331 8.21337 18.2239 8.30837C18.3147 8.40338 18.3858 8.51535 18.4333 8.63788C18.4807 8.76041 18.5035 8.8911 18.5004 9.02246C18.4973 9.15382 18.4683 9.28327 18.4151 9.40342C18.362 9.52357 18.2856 9.63205 18.1904 9.72266H18.1904Z" fill="#00C2B1"/>
</svg>
