<svg width="10" height="16" viewBox="0 0 10 16" fill="none" xmlns="http://www.w3.org/2000/svg">
<path d="M9.65137 8.1543C9.64258 7.84668 9.52832 7.58301 9.29102 7.3457L2.45312 0.657227C2.25098 0.463867 2.01367 0.358398 1.72363 0.358398C1.13477 0.358398 0.677734 0.81543 0.677734 1.4043C0.677734 1.68555 0.791992 1.94922 0.994141 2.15137L7.14648 8.1543L0.994141 14.1572C0.791992 14.3594 0.677734 14.6143 0.677734 14.9043C0.677734 15.4932 1.13477 15.9502 1.72363 15.9502C2.00488 15.9502 2.25098 15.8447 2.45312 15.6514L9.29102 8.9541C9.53711 8.72559 9.65137 8.46191 9.65137 8.1543Z" fill="#FAFAFA"/>
</svg>
