<svg width="30" height="22" viewBox="0 0 30 22" fill="none" xmlns="http://www.w3.org/2000/svg">
<path d="M4.32708 20.3529H13.0056V18.1381H4.46268C3.41176 18.1381 2.83545 17.5844 2.83545 16.4882V8.11478H25.1421V11.6857C25.515 11.5839 25.8992 11.5387 26.2947 11.5387C26.6676 11.5387 27.0292 11.5726 27.3569 11.6518V4.46481C27.3569 2.04656 26.1026 0.792236 23.6505 0.792236H4.32708C1.89753 0.792236 0.620605 2.04656 0.620605 4.46481V16.6804C0.620605 19.0986 1.89753 20.3529 4.32708 20.3529ZM2.83545 4.65691C2.83545 3.56079 3.41176 3.00708 4.46268 3.00708H23.5262C24.5658 3.00708 25.1421 3.56079 25.1421 4.65691V5.48183H2.83545V4.65691ZM17.989 21.2908H22.2379C22.6673 21.2908 22.995 20.9857 22.995 20.5563C22.995 20.1043 22.6673 19.7879 22.2379 19.7879H19.7067V19.7314L21.0853 18.3867C22.3396 17.1437 22.7464 16.4543 22.7464 15.5729C22.7464 14.2056 21.5599 13.1773 19.9892 13.1773C18.7462 13.1773 17.6839 13.8779 17.3449 14.9175C17.2771 15.0757 17.2432 15.2565 17.2432 15.4486C17.2432 15.8893 17.5483 16.1944 17.9777 16.1944C18.3507 16.1944 18.5767 16.0023 18.701 15.5955C18.7236 15.4938 18.7462 15.4147 18.7801 15.3469C19.0061 14.9062 19.4355 14.6576 19.9892 14.6576C20.6107 14.6576 21.1418 15.1096 21.1418 15.6407C21.1418 16.1266 20.9271 16.4543 19.9892 17.381L17.5935 19.7653C17.3223 20.0252 17.2093 20.2512 17.2093 20.5337C17.2093 20.9857 17.5257 21.2908 17.989 21.2908ZM26.306 21.4038C28.0575 21.4038 29.3345 20.3529 29.3345 18.9178C29.3345 18.0703 28.8825 17.3697 28.1819 17.0533C28.713 16.6804 29.0181 16.104 29.0181 15.4147C29.0181 14.1265 27.8767 13.1773 26.2947 13.1773C25.1195 13.1773 24.1251 13.7084 23.7183 14.5672C23.6166 14.7932 23.5488 15.0531 23.5488 15.2904C23.5488 15.7198 23.8539 16.0249 24.2833 16.0249C24.6675 16.0249 24.8822 15.8441 24.9952 15.4938C25.1873 14.9627 25.628 14.6576 26.2495 14.6576C26.984 14.6576 27.4134 14.9966 27.4134 15.5503C27.4134 16.1153 26.9501 16.4769 26.2156 16.4769H25.6619C25.2325 16.4769 24.9387 16.7821 24.9387 17.1889C24.9387 17.607 25.2325 17.9121 25.6619 17.9121H26.2269C27.1648 17.9121 27.6846 18.2624 27.6846 18.9178C27.6846 19.5167 27.1422 19.9122 26.3173 19.9122C25.5715 19.9122 25.063 19.6071 24.8709 19.0647C24.7579 18.7257 24.5206 18.5562 24.159 18.5562C23.707 18.5562 23.3793 18.8726 23.3793 19.3133C23.3793 19.5393 23.4471 19.7879 23.5601 20.0026C24.0686 20.8953 25.0404 21.4038 26.306 21.4038ZM15.4352 21.4038C15.9211 21.4038 16.2488 21.0761 16.2488 20.6015V14.07C16.2488 13.5728 15.8985 13.2338 15.3787 13.2338C15.1188 13.2338 14.9154 13.3016 14.6103 13.4937L12.9265 14.6011C12.6327 14.7819 12.4971 15.0192 12.4971 15.3017C12.4971 15.7085 12.8022 15.991 13.2091 15.991C13.3786 15.991 13.5255 15.9458 13.6837 15.8328L14.5877 15.2565H14.6555V20.6015C14.6555 21.0761 14.9832 21.4038 15.4352 21.4038Z" fill="#00C2B1"/>
</svg>
