<svg width="26" height="22" viewBox="0 0 26 22" fill="none" xmlns="http://www.w3.org/2000/svg">
<path d="M0.715393 10.6026C0.715393 11.1249 1.11718 11.5769 1.76004 11.5769C2.07142 11.5769 2.35267 11.4061 2.60379 11.2053L12.5681 2.83806C12.8493 2.59699 13.1707 2.59699 13.452 2.83806L23.4062 11.2053C23.6473 11.4061 23.9286 11.5769 24.2399 11.5769C24.8326 11.5769 25.2846 11.2053 25.2846 10.6227C25.2846 10.2811 25.154 10.0099 24.8928 9.78896L22.0703 7.41842V3.23985C22.0703 2.78784 21.779 2.50659 21.327 2.50659H19.9408C19.4989 2.50659 19.1975 2.78784 19.1975 3.23985V4.99766L14.4364 0.999895C13.5625 0.266636 12.4576 0.266636 11.5837 0.999895L1.11718 9.78896C0.845973 10.0099 0.715393 10.3113 0.715393 10.6026ZM3.9799 19.6327C3.9799 21.0791 4.88392 21.953 6.38057 21.953H19.6295C21.1161 21.953 22.0301 21.0791 22.0301 19.6327V11.9988L13.6228 4.95748C13.231 4.61597 12.7589 4.62601 12.3772 4.95748L3.9799 11.9988V19.6327ZM15.6417 20.0646H10.3683V13.6361C10.3683 13.164 10.6797 12.8626 11.1518 12.8626H14.8683C15.3404 12.8626 15.6417 13.164 15.6417 13.6361V20.0646Z" fill="#00C2B1"/>
</svg>
