<svg width="64" height="64" viewBox="0 0 64 64" fill="none" xmlns="http://www.w3.org/2000/svg">
<path d="M18.2788 47.6831C18.2788 51.0179 20.6092 53.2478 24.1047 53.2478H39.9752C43.4105 53.2478 45.7007 51.0179 45.7007 47.6831V14.7166C45.7007 11.3818 43.4105 9.15186 39.9752 9.15186H24.1047C20.6092 9.15186 18.2788 11.3818 18.2788 14.7166V47.6831ZM27.9016 13.0894C27.9016 12.567 28.2632 12.2255 28.7654 12.2255H35.2342C35.7364 12.2255 36.098 12.567 36.098 13.0894C36.098 13.6117 35.7364 13.9532 35.2342 13.9532H28.7654C28.2632 13.9532 27.9016 13.6117 27.9016 13.0894ZM22.2967 45.6139V16.7858H41.6828V45.6139H22.2967ZM32.0199 50.9978C30.9752 50.9978 30.1315 50.1541 30.1315 49.1094C30.1315 48.0849 30.9752 47.2612 32.0199 47.2612C33.0444 47.2612 33.8681 48.0849 33.8681 49.1094C33.8681 50.1541 33.0444 50.9978 32.0199 50.9978Z" fill="#FAFAFA"/>
</svg>
