<svg width="24" height="16" viewBox="0 0 24 16" fill="none" xmlns="http://www.w3.org/2000/svg">
<path d="M15.9088 0.758789H7.7713C3.64922 0.758789 0.307617 4.10852 0.307617 8.24063C0.307617 12.3727 3.64922 15.7225 7.7713 15.7225H15.9088C20.0309 15.7225 23.3725 12.3727 23.3725 8.24063C23.3725 4.10852 20.0309 0.758789 15.9088 0.758789Z" fill="url(#paint0_linear_1_19881)"/>
<path opacity="0.57" d="M0.303226 8.24017C0.302783 9.72056 0.740281 11.1678 1.56039 12.399C2.38051 13.6301 3.5464 14.5898 4.91063 15.1567C6.27486 15.7236 7.77616 15.8723 9.22466 15.5838C10.6732 15.2954 12.0038 14.5829 13.0483 13.5363C14.0928 12.4898 14.8043 11.1563 15.0928 9.70438C15.3812 8.25251 15.2337 6.74749 14.6689 5.37965C14.104 4.01182 13.1472 2.84261 11.9195 2.01989C10.6918 1.19716 9.2482 0.757873 7.7714 0.757577C6.79057 0.756097 5.81908 0.948603 4.91257 1.32407C4.00607 1.69953 3.18236 2.25058 2.48864 2.94565C1.79491 3.64072 1.24478 4.46615 0.869775 5.37467C0.494767 6.28319 0.302242 7.25695 0.303226 8.24017Z" fill="#39C79C"/>
<path d="M11.7666 15.1625C15.5806 15.1625 18.6724 12.0632 18.6724 8.23996C18.6724 4.41673 15.5806 1.31738 11.7666 1.31738C7.95266 1.31738 4.86084 4.41673 4.86084 8.23996C4.86084 12.0632 7.95266 15.1625 11.7666 15.1625Z" fill="#72BDAC"/>
<path d="M16.1229 14.4444C19.5412 14.4444 22.3122 11.6666 22.3122 8.24003C22.3122 4.81344 19.5412 2.03564 16.1229 2.03564C12.7046 2.03564 9.93359 4.81344 9.93359 8.24003C9.93359 11.6666 12.7046 14.4444 16.1229 14.4444Z" fill="#FAFAFA"/>
<defs>
<linearGradient id="paint0_linear_1_19881" x1="0.307617" y1="8.24063" x2="23.3718" y2="8.24063" gradientUnits="userSpaceOnUse">
<stop stop-color="#023B52"/>
<stop offset="1" stop-color="#229381"/>
</linearGradient>
</defs>
</svg>
