<svg width="16" height="23" viewBox="0 0 16 23" fill="none" xmlns="http://www.w3.org/2000/svg">
<path d="M2.68897 22.5846H13.3112C15.0627 22.5846 15.9215 21.7145 15.9215 19.8161V11.7816C15.9215 10.0979 15.2435 9.22778 13.8649 9.04698V6.41403C13.8649 2.11994 11.0059 0.052002 8.00007 0.052002C4.99421 0.052002 2.13525 2.11994 2.13525 6.41403V9.04698C0.756627 9.22778 0.0786133 10.0979 0.0786133 11.7816V19.8161C0.0786133 21.7145 0.93743 22.5846 2.68897 22.5846ZM4.3049 6.21062C4.3049 3.57767 5.97733 2.13124 8.00007 2.13124C10.0115 2.13124 11.6952 3.57767 11.6952 6.21062V9.01308H4.3049V6.21062ZM3.05057 20.5393C2.55336 20.5393 2.30476 20.302 2.30476 19.7144V11.8833C2.30476 11.2844 2.55336 11.0697 3.05057 11.0697H12.9609C13.4581 11.0697 13.6954 11.2844 13.6954 11.8833V19.7144C13.6954 20.302 13.4581 20.5393 12.9609 20.5393H3.05057Z" fill="#00C2B1"/>
</svg>
