<svg width="25" height="14" viewBox="0 0 25 14" fill="none" xmlns="http://www.w3.org/2000/svg">
<path d="M2.11786 11.0185C2.13588 10.9536 2.19501 10.9086 2.26241 10.9086H5.18024C5.24775 10.1067 5.70096 9.41206 6.35361 9.01564C6.72652 8.78814 7.16273 8.65859 7.62697 8.65859C8.90863 8.65859 9.96673 9.65224 10.0709 10.9086H12.7048L14.8772 1.63933L5.32199 1.62188C5.27356 1.62179 5.22816 1.59833 5.20007 1.55887C5.17198 1.51942 5.16467 1.46883 5.18044 1.42304L5.48684 0.533195C5.50772 0.47257 5.56482 0.431916 5.62894 0.432031L15.5493 0.449829C15.5493 0.449829 15.5494 0.449829 15.5494 0.449829L15.5495 0.449829L15.5493 0.599829C15.6626 0.599829 15.7688 0.665084 15.8364 0.777798L2.11786 11.0185ZM2.11786 11.0185L1.87108 11.9084C1.85856 11.9535 1.86786 12.0019 1.89622 12.0392C1.92459 12.0765 1.96876 12.0984 2.01562 12.0984H5.37969M2.11786 11.0185L5.37969 12.0984M5.37969 12.0984C5.76153 12.9718 6.64242 13.568 7.62697 13.568C8.60897 13.568 9.4868 12.9715 9.86833 12.0984H17.4787C17.8639 12.973 18.7433 13.568 19.7269 13.568C20.711 13.568 21.5906 12.9724 21.9752 12.0974H22.7088C22.7756 12.0974 22.8344 12.0531 22.8529 11.9889L23.9866 8.0543L23.9866 8.05428C24.3408 6.82426 24.1126 5.5323 23.3603 4.50085C22.5643 3.4095 21.2613 2.81289 19.92 2.81289L5.37969 12.0984ZM17.2803 10.9086H13.7658L15.386 4.00274L17.2803 10.9086ZM1.37967 7.1918C1.31958 7.1918 1.26528 7.22766 1.2417 7.28293L0.862033 8.17278C0.842263 8.21912 0.847073 8.27228 0.87484 8.31432C0.902607 8.35635 0.949621 8.38164 1 8.38164H6.77808C6.83925 8.38164 6.8943 8.34449 6.91719 8.28775L7.27609 7.3979C7.29474 7.35167 7.2892 7.2992 7.26131 7.25788C7.23342 7.21656 7.18683 7.1918 7.13698 7.1918H1.37967ZM20.963 11.3783L20.963 11.3785C20.8404 11.9571 20.3201 12.3782 19.7269 12.3782C19.1337 12.3782 18.6131 11.9571 18.4902 11.3779C18.4715 11.2893 18.4617 11.2003 18.4617 11.1133C18.4617 10.4161 19.0293 9.84844 19.7269 9.84844C20.4241 9.84844 20.9914 10.416 20.9914 11.1133C20.9914 11.2006 20.9819 11.2895 20.963 11.3783ZM6.25215 4.8608C6.2708 4.81456 6.26526 4.76209 6.23737 4.72077C6.20948 4.67945 6.16289 4.65469 6.11304 4.65469H2.4617C2.40161 4.65469 2.34732 4.69055 2.32373 4.74582L1.94406 5.63567C1.92429 5.68201 1.9291 5.73517 1.95687 5.77721C1.98464 5.81925 2.03165 5.84454 2.08203 5.84454H5.75414C5.81531 5.84454 5.87036 5.80738 5.89325 5.75064L6.25215 4.8608ZM3.51147 2.18008C3.45122 2.18008 3.39682 2.21612 3.37334 2.2716L2.99663 3.16145C2.97702 3.20777 2.98194 3.26084 3.00972 3.30278C3.03751 3.34471 3.08446 3.36993 3.13477 3.36993H4.75429C4.81547 3.36993 4.87051 3.33277 4.8934 3.27603L5.2523 2.38619C5.27095 2.33996 5.26541 2.28748 5.23752 2.24616C5.20964 2.20484 5.16304 2.18008 5.11319 2.18008H3.51147ZM8.85954 11.3786C8.73475 11.9567 8.21693 12.3782 7.62697 12.3782C7.03346 12.3782 6.51311 11.9561 6.38846 11.3785C6.37021 11.2924 6.36211 11.2023 6.36211 11.1133C6.36211 10.416 6.92971 9.84844 7.62697 9.84844C8.32106 9.84844 8.88886 10.4158 8.88886 11.1133C8.88886 11.1993 8.87841 11.2896 8.85954 11.3786Z" fill="#FAFAFA" stroke="#FAFAFA" stroke-width="0.3" stroke-linejoin="round"/>
</svg>
